<?xml version="1.0" standalone="no"?>
<!DOCTYPE svg PUBLIC "-//W3C//DTD SVG 20010904//EN"
 "http://www.w3.org/TR/2001/REC-SVG-20010904/DTD/svg10.dtd">
<svg version="1.0" xmlns="http://www.w3.org/2000/svg"
 width="289.000000pt" height="289.000000pt" viewBox="0 0 289.000000 289.000000"
 preserveAspectRatio="xMidYMid meet">
<metadata>
Created by potrace 1.11, written by Peter Selinger 2001-2013
</metadata>
<g transform="translate(0.000000,289.000000) scale(0.100000,-0.100000)"
fill="#000000" stroke="none">
<path d="M2490 2444 c-135 -36 -225 -141 -270 -318 -16 -64 -19 -102 -16 -200
5 -147 9 -167 52 -262 36 -80 103 -162 209 -259 127 -115 128 -117 170 -200
30 -59 37 -84 40 -150 3 -73 -4 -162 -19 -225 -10 -45 -60 -104 -106 -127 -54
-28 -113 -29 -178 -5 -53 20 -142 77 -155 99 -5 7 -11 12 -15 9 -9 -5 -7 -175
2 -201 10 -30 58 -64 123 -88 82 -30 229 -30 296 1 90 41 177 154 202 262 5
19 11 42 13 50 12 38 10 279 -3 338 -26 123 -59 174 -223 342 -138 141 -155
162 -183 230 -44 103 -58 160 -54 222 4 81 32 198 56 233 65 94 198 117 320
55 l60 -30 -2 86 c-1 85 -2 86 -33 105 -70 43 -192 57 -286 33z"/>
<path d="M822 1973 l3 -458 90 0 90 0 2 458 2 457 -95 0 -94 0 2 -457z"/>
<path d="M1413 1570 c4 -520 5 -527 64 -586 17 -18 58 -42 90 -55 49 -20 76
-23 183 -23 114 -1 130 2 181 25 63 30 92 67 109 144 8 33 13 204 14 508 2
407 0 457 -13 458 -39 4 -157 5 -166 2 -7 -2 -10 -136 -10 -386 1 -381 -4
-465 -25 -517 -12 -29 -66 -60 -104 -60 -40 0 -95 29 -109 58 -19 39 -20 65
-21 505 -1 218 -3 398 -6 398 -3 1 -47 2 -98 3 l-94 2 5 -476z"/>
<path d="M53 2002 l-21 -3 1 -562 2 -562 35 1 c19 0 60 2 91 2 l56 2 1 248 c0
136 1 257 1 270 1 22 3 22 126 22 l125 0 0 84 0 84 -121 0 c-66 0 -123 3 -126
5 -4 5 -5 57 -4 184 l1 52 130 -1 c72 -1 132 1 134 3 4 4 9 108 7 155 -1 21
-3 21 -208 20 -115 0 -218 -2 -230 -4z"/>
<path d="M843 1386 c-121 -30 -201 -122 -219 -252 -8 -61 -8 -365 0 -419 10
-62 53 -141 98 -180 64 -54 127 -74 229 -71 135 3 223 56 280 168 19 37 49
122 49 141 0 4 -40 7 -88 7 l-88 0 -27 -55 c-31 -63 -69 -88 -135 -87 -60 2
-106 32 -127 85 -14 34 -17 74 -17 202 1 175 3 191 28 234 24 40 64 61 120 61
63 0 107 -30 134 -92 l21 -48 89 0 90 0 -6 33 c-9 50 -58 149 -93 190 -70 79
-212 114 -338 83z"/>
</g>
</svg>
