<?xml version="1.0" standalone="no"?>
<!DOCTYPE svg PUBLIC "-//W3C//DTD SVG 20010904//EN"
 "http://www.w3.org/TR/2001/REC-SVG-20010904/DTD/svg10.dtd">
<svg version="1.0" xmlns="http://www.w3.org/2000/svg"
 width="766.000000pt" height="766.000000pt" viewBox="0 0 766.000000 766.000000"
 preserveAspectRatio="xMidYMid meet">
<metadata>
Created by potrace 1.11, written by Peter Selinger 2001-2013
</metadata>
<g transform="translate(0.000000,766.000000) scale(0.100000,-0.100000)"
fill="#000000" stroke="none">
<path d="M3484 7588 c-128 -113 -345 -509 -448 -818 -30 -91 -71 -244 -92
-340 l-38 -175 0 -260 c-1 -275 3 -310 59 -555 44 -190 72 -273 160 -460 48
-102 105 -225 126 -275 21 -49 48 -108 59 -130 10 -22 42 -101 70 -175 28 -74
84 -223 125 -330 40 -107 77 -208 81 -225 7 -28 6 -29 -10 -13 -44 45 -237
326 -336 493 -30 50 -150 234 -268 410 -118 176 -232 351 -254 388 -51 88
-228 325 -303 405 -59 64 -181 168 -380 324 -207 162 -328 222 -400 198 -48
-16 -65 -52 -65 -141 0 -206 77 -682 139 -860 93 -269 234 -533 381 -719 158
-198 381 -382 565 -467 163 -74 287 -128 390 -168 181 -71 321 -131 492 -213
l162 -77 21 -90 c84 -360 154 -988 184 -1670 l4 -100 -33 118 c-19 65 -45 151
-60 190 -14 40 -36 110 -49 157 -52 187 -237 603 -319 720 -82 118 -233 285
-414 458 -209 200 -323 297 -368 312 -45 15 -82 -1 -100 -43 -17 -40 -6 -223
20 -347 50 -238 176 -680 194 -680 4 0 7 -8 8 -18 2 -28 72 -174 91 -189 11
-10 12 -12 2 -8 -8 4 -6 -2 6 -12 17 -15 34 -54 38 -85 1 -3 11 -18 23 -31 12
-14 19 -28 16 -31 -4 -3 0 -6 7 -6 7 0 10 -3 7 -6 -24 -24 224 -289 458 -491
77 -66 176 -152 220 -191 44 -40 121 -102 172 -139 91 -68 92 -68 93 -113 0
-25 5 -119 11 -210 5 -91 14 -275 19 -410 15 -377 19 -420 39 -421 9 0 30 -3
46 -6 17 -2 56 1 88 8 45 9 56 15 53 28 -5 16 -13 121 -41 536 -22 325 -30
287 78 372 51 40 151 114 222 164 122 84 510 357 565 396 13 10 115 90 225
178 222 176 426 374 523 505 34 47 71 95 81 107 10 12 21 30 24 40 3 10 26 64
50 120 66 148 189 461 228 580 32 99 33 103 17 136 -20 43 -69 65 -107 50
-574 -238 -849 -381 -1028 -535 -97 -83 -256 -260 -330 -366 -37 -53 -71 -98
-75 -100 -4 -2 -8 -8 -8 -13 0 -6 -18 -37 -40 -70 -23 -32 -68 -112 -102 -177
-34 -64 -93 -173 -131 -242 -38 -69 -102 -190 -142 -270 l-72 -146 -6 296 c-4
162 -11 369 -17 460 -14 213 -64 657 -93 832 l-24 138 111 53 c61 30 145 75
186 102 41 27 131 76 200 110 69 35 200 108 293 163 92 56 167 98 167 95 0 -4
6 1 13 10 15 20 347 230 364 230 7 0 11 3 9 6 -2 3 87 69 197 146 146 101 228
166 297 235 124 124 269 341 284 426 3 16 14 40 25 54 10 14 45 102 76 195 45
132 58 183 59 230 0 102 -46 143 -146 130 -319 -43 -616 -114 -833 -199 -60
-24 -150 -58 -200 -76 -104 -37 -230 -102 -331 -172 -88 -60 -289 -265 -332
-338 -18 -30 -51 -80 -73 -110 -22 -30 -63 -98 -91 -150 -28 -52 -56 -99 -62
-105 -22 -19 -223 -439 -277 -580 -21 -55 -38 -92 -39 -83 0 28 -117 427 -154
529 -19 52 -60 159 -91 239 -112 289 -165 438 -165 470 0 33 70 201 196 473
146 313 276 697 344 1012 54 253 63 326 57 473 -5 144 -45 324 -96 435 -31 70
-107 186 -174 269 -24 29 -63 82 -87 118 -81 120 -101 140 -142 140 -28 0 -47
-8 -74 -32z m-600 -5326 c3 -5 -1 -9 -9 -9 -8 0 -12 4 -9 9 3 4 7 8 9 8 2 0 6
-4 9 -8z m73 -146 c-3 -8 -1 -17 6 -20 8 -3 8 -5 1 -5 -6 -1 -18 7 -25 16 -10
11 -10 14 -1 9 6 -4 12 -2 12 3 0 6 3 11 6 11 3 0 4 -6 1 -14z"/>
</g>
</svg>
